<svg width="32" height="32" viewBox="0 0 32 32" fill="none" xmlns="http://www.w3.org/2000/svg">
<g clip-path="url(#clip0)">
<path fill-rule="evenodd" clip-rule="evenodd" d="M31.88 6.16024C30.863 6.62024 29.744 6.89924 28.648 7.08324C29.168 6.99524 29.936 6.05324 30.243 5.67124C30.711 5.09024 31.1 4.42624 31.319 3.71124C31.347 3.65524 31.369 3.58524 31.313 3.54224C31.243 3.51524 31.197 3.52924 31.141 3.55724C29.9275 4.20519 28.6379 4.69902 27.302 5.02724C27.2557 5.04165 27.2063 5.04272 27.1594 5.03034C27.1125 5.01796 27.0701 4.99263 27.037 4.95724C26.9344 4.83409 26.8224 4.71908 26.702 4.61324C26.1474 4.13554 25.5193 3.75058 24.842 3.47324C23.9378 3.107 22.9625 2.94976 21.989 3.01324C21.0433 3.07753 20.1214 3.33806 19.282 3.77824C18.4411 4.21781 17.6987 4.82415 17.1 5.56024C16.4787 6.32453 16.0335 7.21634 15.796 8.17224C15.572 9.09224 15.59 10.0002 15.726 10.9292C15.748 11.0832 15.734 11.1042 15.595 11.0832C10.319 10.3002 5.94898 8.41224 2.39998 4.37024C2.24598 4.19424 2.16197 4.19424 2.03597 4.38324C0.482975 6.71124 1.23598 10.4502 3.17598 12.2882C3.43498 12.5332 3.69998 12.7782 3.98697 13.0012C3.88297 13.0232 2.59198 12.8832 1.44098 12.2882C1.28698 12.1912 1.20998 12.2472 1.19598 12.4212C1.18598 12.674 1.20004 12.9271 1.23798 13.1772C1.53598 15.5372 3.16998 17.7192 5.40798 18.5712C5.67397 18.6822 5.96698 18.7812 6.25398 18.8292C5.74398 18.9412 5.21898 19.0212 3.75697 18.9072C3.57498 18.8712 3.50498 18.9622 3.57498 19.1372C4.67298 22.1322 7.04498 23.0232 8.82098 23.5302C9.05898 23.5722 9.29698 23.5722 9.53498 23.6282C9.52098 23.6492 9.50698 23.6492 9.49298 23.6702C8.90298 24.5682 6.86098 25.2372 5.90998 25.5702C4.17998 26.1742 2.29698 26.4462 0.467975 26.2662C0.175975 26.2232 0.113975 26.2262 0.0349751 26.2662C-0.0450249 26.3162 0.0249751 26.3862 0.118975 26.4612C0.488975 26.7062 0.866975 26.9232 1.25198 27.1332C2.40792 27.7495 3.62785 28.2374 4.88998 28.5882C11.427 30.3932 18.79 29.0672 23.7 24.1902C27.553 20.3602 28.904 15.0792 28.904 9.79024C28.904 9.58424 29.148 9.47024 29.294 9.36024C30.297 8.60724 31.094 7.70524 31.842 6.69824C32.01 6.47224 32 6.27124 32 6.18824V6.16024C32 6.07624 32.01 6.10124 31.88 6.16024Z" fill="#1AD6F0"/>
</g>
<defs>
<clipPath id="clip0">
<rect width="32" height="32" fill="white"/>
</clipPath>
</defs>
</svg>
